<svg xmlns="http://www.w3.org/2000/svg" xmlns:xlink="http://www.w3.org/1999/xlink"><symbol id="sprite-icon-gallery" viewBox="0 0 130 130">
<rect fill="none" width="130" height="130"/>
<g>
	<rect x="1" y="1.13" width="36.972" height="36.969"/>
	<rect x="1" y="46.489" width="36.972" height="36.97"/>
	<rect x="46.436" y="1.13" width="36.965" height="36.969"/>
	<rect x="46.436" y="46.489" width="36.965" height="36.97"/>
	<rect x="92.028" y="1.13" width="36.972" height="36.969"/>
	<rect x="92.028" y="46.489" width="36.972" height="36.97"/>
	<rect x="1" y="91.901" width="36.972" height="36.969"/>
	<rect x="46.436" y="91.901" width="36.965" height="36.969"/>
	<rect x="92.028" y="91.901" width="36.972" height="36.969"/>
</g>
</symbol><symbol id="sprite-icon-git" viewBox="0 0 130 130">
<rect fill="none" width="17" height="17"/>
<g>
	<path fill="#82aa57" d="M65,1.9c-35.3,0-64,28.7-64,64c0,30.1,20.7,55.3,48.7,62.1c0-7.9,0-23,0-23.5c-0.1-0.1-12.1,7-18.3-5.3
		c-0.7-1.5-2.2-6.6-6-9.4c-0.1-0.1-2.9-1.5-3.1-2.9c0-0.2,0.2-0.6,0.4-0.7c0.3-0.1,4.8-2,9.9,4.4c1.5,2.1,5,10.4,17,5.3
		c0.3-1.3,0.6-3.3,3.2-5.7c-17.9-2.1-24.5-8.3-27-23.6c-1.6-10.4,1.5-19.1,6-23.4c-0.7-0.9-3-8.5,0.6-16.6c3.8-0.8,10.9,2,17.1,6.5
		c8.8-3.2,25.2-2.3,31.1,0c2.8-2.3,12.8-7.7,17.1-6.5c1.3,3.2,3.1,11,0.6,16.6c5.6,5.7,7.1,13.1,6.1,22.2
		c-1.2,13.8-8.2,23.1-27.2,24.7c3.2,2.2,6.1,5.3,6.1,10.5c0,5.6,0,18.9,0,26.6C109.7,119.5,129,95,129,65.9
		C129,30.6,100.3,1.9,65,1.9z"/>
</g>
</symbol><symbol id="sprite-icon-instagram" viewBox="0 0 256 256" preserveAspectRatio="xMidYMid">
    <g>
        <path fill="#82aa57" d="M226.467714,256 L29.5322856,256 C13.2237152,256 0,242.771645 0,226.451622 L0,29.5325465 C0,13.2215704 13.2237152,0 29.5322856,0 L226.467714,0 C242.778546,0 256,13.2215704 256,29.5325465 L256,226.451622 C256,242.771645 242.778546,256 226.467714,256 L226.467714,256 Z M127.998869,78.7662732 C100.807364,78.7662732 78.767839,100.803732 78.767839,127.995477 C78.767839,155.182698 100.807364,177.231465 127.998869,177.231465 C155.190374,177.231465 177.234423,155.182698 177.234423,127.995477 C177.234423,100.803732 155.190374,78.7662732 127.998869,78.7662732 L127.998869,78.7662732 Z M226.467714,39.3774825 C226.467714,33.9427521 222.057548,29.5325465 216.611557,29.5325465 L187.079272,29.5325465 C181.640066,29.5325465 177.234423,33.9427521 177.234423,39.3774825 L177.234423,68.9213372 C177.234423,74.3560676 181.640066,78.7662732 187.079272,78.7662732 L216.611557,78.7662732 C222.057548,78.7662732 226.467714,74.3560676 226.467714,68.9213372 L226.467714,39.3774825 Z M226.467714,108.296558 L204.181672,108.296558 C205.805518,114.59976 206.764447,121.185667 206.764447,127.995477 C206.764447,171.504983 171.501206,206.766273 127.998869,206.766273 C84.4987941,206.766273 49.2332918,171.504983 49.2332918,127.995477 C49.2332918,121.185667 50.1967436,114.59976 51.8205896,108.296558 L29.5322856,108.296558 L29.5322856,216.613471 C29.5322856,222.043678 33.9424523,226.451622 39.3884427,226.451622 L216.611557,226.451622 C222.057548,226.451622 226.467714,222.043678 226.467714,216.613471 L226.467714,108.296558 Z"/>
    </g>
</symbol><symbol id="sprite-icon-skype" viewBox="0 0 256 256" preserveAspectRatio="xMidYMid">
    <g>
        <path fill="#82aa57" d="M246.93895,149.01069 C246.857867,149.460702 246.801109,149.914768 246.715971,150.364779 L246.278122,147.786333 C246.517317,148.187695 246.715971,148.605274 246.93895,149.01069 C248.260607,141.818608 248.953868,134.456251 248.953868,127.097949 C248.953868,110.779951 245.759189,94.948452 239.44686,80.0453559 C233.35751,65.64903 224.645118,52.7203104 213.536717,41.6200174 C202.444532,30.5197244 189.507704,21.8073323 175.119487,15.7179824 C160.220445,9.41376198 144.388946,6.21908306 128.070948,6.21908306 C120.380204,6.21908306 112.677298,6.94072373 105.181154,8.37995091 C105.164938,8.38400507 105.144667,8.38400507 105.124396,8.38805923 C105.546029,8.61103809 105.971716,8.80969198 106.38524,9.04077916 L103.843281,8.64347138 C104.268968,8.56238815 104.698709,8.47319661 105.124396,8.38805923 C94.8389896,2.91899596 83.2724681,0 71.564051,0 C52.4486816,0 34.4765856,7.4434397 20.9600127,20.9640668 C7.44749386,34.4806398 0,52.4527358 0,71.5681052 C0,83.7346425 3.12981234,95.6944176 9.00429171,106.263615 C9.08132077,105.825766 9.13402486,105.383863 9.21916225,104.946013 L9.65701164,107.479864 C9.42997862,107.082556 9.23132473,106.669032 9.00429171,106.263615 C7.81236836,113.111094 7.18397339,120.108576 7.18397339,127.097949 C7.18397339,143.420002 10.3786523,159.247446 16.6909811,174.154597 C22.7722227,188.554977 31.4886689,201.475588 42.5849078,212.575881 C53.6933091,223.676174 66.6139203,232.400728 81.0183546,238.473862 C95.9173965,244.790245 111.75295,247.988978 128.070948,247.988978 C135.173838,247.988978 142.292945,247.340312 149.241777,246.107847 C148.836361,245.880814 148.422836,245.674052 148.009312,245.434856 L150.591812,245.888922 C150.145855,245.97406 149.695843,246.026764 149.241777,246.107847 C159.948816,252.164764 172.070758,255.383768 184.448111,255.383768 C203.559427,255.383768 221.523414,247.95249 235.039987,234.427809 C248.560614,220.919344 256,202.943194 256,183.827825 C256,171.620746 252.853971,159.620429 246.93895,149.01069 L246.93895,149.01069 Z M128.553393,201.130984 C85.6076649,201.130984 66.3949956,180.016913 66.3949956,164.193523 C66.3949956,156.077092 72.3870457,150.389104 80.6453718,150.389104 C99.0228838,150.389104 94.2632988,176.777639 128.553393,176.777639 C146.10791,176.777639 155.801409,167.246306 155.801409,157.491995 C155.801409,151.625624 152.906738,145.122749 141.348325,142.272674 L103.15002,132.737287 C72.3870457,125.022219 66.8044659,108.39205 66.8044659,92.759205 C66.8044659,60.3015916 97.364732,48.1147834 126.064138,48.1147834 C152.501322,48.1147834 183.665658,62.7259799 183.665658,82.1981154 C183.665658,90.5415789 176.441143,95.3944097 168.186871,95.3944097 C152.501322,95.3944097 155.387885,73.6843772 123.793808,73.6843772 C108.116367,73.6843772 99.4323541,80.7832132 99.4323541,90.9429409 C99.4323541,101.082398 111.813762,104.321672 122.565397,106.770386 L150.839116,113.046227 C181.808853,119.946409 189.661763,138.027967 189.661763,155.059498 C189.661763,181.43587 169.415282,201.130984 128.553393,201.130984 Z M148.009312,245.434856 C148.422836,245.674052 148.836361,245.880814 149.241777,246.107847 C149.695843,246.026764 150.145855,245.97406 150.591812,245.888922 L148.009312,245.434856 Z M246.715971,150.364779 C246.801109,149.914768 246.857867,149.460702 246.93895,149.01069 C246.715971,148.605274 246.517317,148.187695 246.278122,147.786333 L246.715971,150.364779 Z M9.21916225,104.946013 C9.13402486,105.383863 9.08132077,105.825766 9.00429171,106.263615 C9.23132473,106.669032 9.42997862,107.082556 9.65701164,107.479864 L9.21916225,104.946013 Z M106.38524,9.04077916 C105.971716,8.80969198 105.546029,8.61103809 105.124396,8.38805923 C104.698709,8.47319661 104.268968,8.56238815 103.843281,8.64347138 L106.38524,9.04077916 Z"/>
    </g>
</symbol></svg>